# Wavefront Obj file
# 
# verts: 20 uv-s: 50
mtllib CableTray.mtl

g Plane

v -0.576787 2.000000 -0.084172
v -0.576787 0.000000 -0.084172
v 0.423213 2.000000 -0.084172
v 0.423213 0.000000 -0.084172
v -0.076787 2.000000 -0.084172
v -0.076787 0.000000 -0.084172
v -0.576787 2.000000 0.212980
v -0.576787 0.000000 0.212980
v 0.423213 2.000000 0.212980
v 0.423213 0.000000 0.212980
v -0.674414 2.000000 0.212980
v -0.674414 0.000000 0.212980
v 0.520840 2.000000 0.212980
v 0.520840 0.000000 0.212980
v -0.674414 2.000000 -0.199801
v -0.674414 0.000000 -0.199801
v 0.520840 2.000000 -0.199801
v 0.520840 0.000000 -0.199801
v -0.076787 2.000000 -0.199801
v -0.076787 0.000000 -0.199801
# 20 positions

vt 0.165100 0.000000
vt 0.165100 0.836600
vt 0.000000 0.836600
vt 0.000000 0.000000
vt 0.330300 0.000000
vt 0.330300 0.836600
vt 0.701100 0.000000
vt 0.701100 0.836600
vt 0.602900 0.836600
vt 0.602900 0.000000
vt 0.701100 0.836600
vt 0.701100 0.000000
vt 0.799200 0.000000
vt 0.799200 0.836600
vt 1.000000 0.000000
vt 1.000000 0.836600
vt 0.967800 0.836600
vt 0.967800 0.000000
vt 0.935500 0.836600
vt 0.935500 0.000000
vt 0.967800 0.000000
vt 0.967800 0.836600
vt 0.602900 0.000000
vt 0.602900 0.836600
vt 0.466600 0.836600
vt 0.466600 0.000000
vt 0.330300 0.836600
vt 0.330300 0.000000
vt 0.466600 0.000000
vt 0.466600 0.836600
vt 0.935500 0.459200
vt 0.935500 0.500000
vt 0.799200 0.500000
vt 0.837400 0.459200
vt 0.799200 0.250000
vt 0.837400 0.250000
vt 0.799200 0.000000
vt 0.837400 0.040800
vt 0.935500 0.000000
vt 0.935500 0.040800
vt 0.837400 0.540800
vt 0.799200 0.500000
vt 0.935500 0.500000
vt 0.935500 0.540800
vt 0.837400 0.750000
vt 0.799200 0.750000
vt 0.837400 0.959200
vt 0.799200 1.000000
vt 0.935500 0.959200
vt 0.935500 1.000000
# 50 texture coordinates

vn 0.000000 0.000000 1.000000
vn -1.000000 0.000000 0.000000
vn 1.000000 0.000000 0.000000
vn 0.000000 1.000000 0.000000
vn 0.000000 -1.000000 0.000000
# 5 normals

usemtl None
f 5/1/1 6/2/1 4/3/1 3/4/1
f 1/5/1 2/6/1 6/2/1 5/1/1
f 3/7/2 4/8/2 10/9/2 9/10/2
f 2/11/3 1/12/3 7/13/3 8/14/3
f 9/15/1 10/16/1 14/17/1 13/18/1
f 8/19/1 7/20/1 11/21/1 12/22/1
f 13/23/3 14/24/3 18/25/3 17/26/3
f 12/27/2 11/28/2 15/29/2 16/30/2
f 9/31/4 13/32/4 17/33/4 3/34/4
f 3/34/4 17/33/4 19/35/4 5/36/4
f 5/36/4 19/35/4 15/37/4 1/38/4
f 1/38/4 15/37/4 11/39/4 7/40/4
f 4/41/5 18/42/5 14/43/5 10/44/5
f 6/45/5 20/46/5 18/42/5 4/41/5
f 2/47/5 16/48/5 20/46/5 6/45/5
f 8/49/5 12/50/5 16/48/5 2/47/5

# 16 faces
