# Wavefront Obj file
# 
# verts: 16 uv-s: 40
mtllib Light_Combined.mtl

g Light_Cover

v 50.000000 375.000000 -87.500061
v 52.000000 387.500000 -84.375061
v -50.000000 375.000000 -87.500061
v 52.000000 387.499969 -115.625061
v 50.000000 374.999969 -112.500061
v -52.000000 387.499969 -115.625061
v -50.000000 374.999969 -112.500061
v -52.000000 387.500000 -84.375061
# 8 positions

vt 0.199404 0.769770
vt 0.107684 0.746840
vt 0.107684 0.976140
vt 0.099543 0.019675
vt 0.005000 0.005000
vt 0.005000 0.768111
vt 0.099543 0.753435
vt 0.479284 0.786534
vt 0.386398 0.763604
vt 0.386398 0.992904
vt 0.479284 0.969974
vt 0.291124 0.738760
vt 0.291124 0.005000
vt 0.107684 0.005000
vt 0.395021 0.019675
vt 0.300478 0.005000
vt 0.300478 0.768111
vt 0.395021 0.753435
vt 0.107684 0.738760
vt 0.199404 0.953210
# 20 texture coordinates

vn -0.987441 -0.157991 0.000000
vn -0.987441 -0.157991 0.000000
vn -0.987441 -0.157991 0.000000
vn 0.000000 -0.242536 0.970143
vn 0.000000 -0.242536 0.970143
vn 0.000000 -0.242536 0.970143
vn 0.000000 -0.242536 0.970143
vn 0.987441 -0.157991 0.000000
vn 0.987441 -0.157991 0.000000
vn 0.987441 -0.157991 0.000000
vn 0.987441 -0.157991 0.000000
vn 0.000000 -1.000000 0.000001
vn 0.000000 -1.000000 0.000001
vn 0.000000 -1.000000 0.000001
vn 0.000000 -0.242536 -0.970143
vn 0.000000 -0.242536 -0.970143
vn 0.000000 -0.242536 -0.970143
vn 0.000000 -0.242536 -0.970143
vn 0.000000 -1.000000 0.000001
vn -0.987441 -0.157990 0.000000
# 20 normals

usemtl 
s 1
f 3/1/1 8/2/2 6/3/3
f 7/20/20 3/1/1 6/3/3
s 2
f 1/4/4 2/5/5 8/6/6 3/7/7
s 3
f 5/8/8 4/9/9 2/10/10 1/11/11
s 4
f 7/12/12 5/13/13 1/14/14
f 3/19/19 7/12/12 1/14/14
s 5
f 7/15/15 6/16/16 4/17/17 5/18/18

g Light_Case

v 52.000000 387.500000 -84.375061
v 52.000000 387.499969 -115.625061
v -52.000000 387.499969 -115.625061
v -52.000000 387.500000 -84.375061
v 50.000000 400.000000 -87.500069
v -50.000000 400.000000 -87.500069
v -50.000000 399.999969 -112.500069
v 50.000000 399.999969 -112.500069
# 8 positions

vt 0.505847 0.992904
vt 0.598733 0.969974
vt 0.598733 0.786534
vt 0.505847 0.763604
vt 0.497705 0.005000
vt 0.403162 0.019675
vt 0.403162 0.753435
vt 0.497705 0.768111
vt 0.378696 0.765700
vt 0.285809 0.788630
vt 0.285809 0.972070
vt 0.378696 0.995000
vt 0.600389 0.005000
vt 0.505847 0.019675
vt 0.505847 0.753435
vt 0.600389 0.768111
vt 0.837830 0.005000
vt 0.608530 0.005000
vt 0.608530 0.768111
vt 0.837830 0.768111
# 20 texture coordinates

vn 0.987441 0.157991 -0.000000
vn 0.987441 0.157991 -0.000000
vn 0.987441 0.157991 -0.000000
vn 0.987441 0.157991 -0.000000
vn 0.000000 0.242535 -0.970143
vn 0.000000 0.242535 -0.970143
vn 0.000000 0.242535 -0.970143
vn 0.000000 0.242535 -0.970143
vn -0.987441 0.157991 -0.000000
vn -0.987441 0.157991 -0.000000
vn -0.987441 0.157991 -0.000000
vn -0.987441 0.157991 -0.000000
vn 0.000000 0.242536 0.970142
vn 0.000000 0.242536 0.970142
vn 0.000000 0.242536 0.970142
vn 0.000000 0.242536 0.970142
vn 0.000000 -1.000000 0.000001
vn 0.000000 -1.000000 0.000001
vn 0.000000 -1.000000 0.000001
vn 0.000000 -1.000000 0.000001
# 20 normals

usemtl 
s 6
f 10/21/21 16/22/22 13/23/23 9/24/24
s 7
f 11/25/25 15/26/26 16/27/27 10/28/28
s 8
f 12/29/29 14/30/30 15/31/31 11/32/32
s 9
f 9/33/33 13/34/34 14/35/35 12/36/36
s 10
f 10/37/37 9/38/38 12/39/39 11/40/40

# 12 faces
