# Wavefront Obj file
# 
# verts: 66 uv-s: 149
mtllib Table.mtl

g Cube

v 1.415086 2.186630 -1.697473
v 1.415086 1.936630 -2.151119
v 1.415086 1.936630 -1.697473
v 0.971202 2.186630 -1.697473
v 1.415086 2.186630 -2.151119
v 0.971201 1.936630 -1.697473
v 0.971202 2.186630 -2.151119
v 0.971202 1.936630 -2.151119
v 1.415086 -0.026473 -2.151119
v 1.415086 -0.026473 -1.697473
v 0.971201 -0.026473 -1.697473
v 0.971202 -0.026473 -2.151119
v 0.000000 1.936630 -1.697474
v -1.415086 2.186630 -1.697473
v -1.415086 1.936630 -2.151119
v -1.415086 1.936630 -1.697473
v -0.971202 2.186630 -1.697473
v 0.000000 2.186630 -1.697474
v -1.415086 2.186630 -2.151119
v -0.971201 1.936630 -1.697473
v 0.000000 1.936630 -2.151120
v 0.000000 2.186630 -2.151121
v -0.971202 2.186630 -2.151119
v -0.971202 1.936630 -2.151119
v -1.415086 -0.026473 -2.151119
v -1.415086 -0.026473 -1.697473
v -0.971201 -0.026473 -1.697473
v -0.971202 -0.026473 -2.151119
v 1.415086 2.186630 1.697473
v 1.415086 1.936630 2.151119
v 1.415086 1.936630 1.697473
v 0.971202 2.186630 1.697473
v 1.415086 2.186630 2.151119
v 0.971201 1.936630 1.697473
v 0.971201 1.936630 0.000000
v 0.971202 2.186630 0.000000
v 0.971202 2.186630 2.151119
v 1.415085 1.936630 0.000000
v 0.971202 1.936630 2.151119
v 1.415086 2.186630 0.000000
v 1.415086 -0.026473 2.151119
v 1.415086 -0.026473 1.697473
v 0.971201 -0.026473 1.697473
v 0.971202 -0.026473 2.151119
v 0.000000 1.936630 1.697474
v -1.415086 2.186630 1.697473
v -1.415086 1.936630 2.151119
v -1.415086 1.936630 1.697473
v -0.971202 2.186630 1.697473
v 0.000000 2.186630 1.697474
v -1.415086 2.186630 2.151119
v -0.971201 1.936630 1.697473
v -0.971201 1.936630 0.000000
v 0.000000 1.936630 2.151120
v -0.971202 2.186630 0.000000
v 0.000000 2.186630 2.151121
v -0.971202 2.186630 2.151119
v -1.415085 1.936630 0.000000
v -0.971202 1.936630 2.151119
v -1.415086 2.186630 0.000000
v 0.000000 2.186630 0.000000
v 0.000000 1.936630 0.000000
v -1.415086 -0.026473 2.151119
v -1.415086 -0.026473 1.697473
v -0.971201 -0.026473 1.697473
v -0.971202 -0.026473 2.151119
# 66 positions

vt 0.852800 0.500000
vt 0.907300 0.500000
vt 0.907300 0.728100
vt 0.852800 0.728100
vt 0.053400 0.052700
vt 0.000000 0.052700
vt 0.000000 0.000000
vt 0.053400 0.000000
vt 0.393600 0.250000
vt 0.393600 0.447300
vt 0.340300 0.447300
vt 0.340300 0.250000
vt 0.296100 0.551600
vt 0.266100 0.551600
vt 0.266100 0.500000
vt 0.296100 0.500000
vt 0.236000 0.500000
vt 0.266100 0.552700
vt 0.236000 0.552700
vt 0.510400 0.250000
vt 0.510400 0.447300
vt 0.053400 0.250000
vt 0.000000 0.250000
vt 0.170100 0.052700
vt 0.170100 0.000000
vt 0.510400 0.500000
vt 0.393600 0.500000
vt 0.266100 0.750000
vt 0.236000 0.750000
vt 0.296100 0.664500
vt 0.266100 0.664500
vt 0.170100 0.250000
vt 0.426200 0.881600
vt 0.426200 0.828900
vt 0.479600 0.828900
vt 0.479600 0.881600
vt 0.000000 0.552700
vt 0.000000 0.500000
vt 0.532200 0.500000
vt 0.532200 0.551600
vt 0.946600 0.000000
vt 1.000000 0.000000
vt 1.000000 0.228100
vt 0.946600 0.228100
vt 0.961900 0.500000
vt 0.961900 0.728100
vt 0.907300 0.728100
vt 0.907300 0.500000
vt 0.286900 0.052700
vt 0.286900 0.000000
vt 0.340300 0.000000
vt 0.340300 0.052700
vt 0.627200 0.250000
vt 0.680500 0.250000
vt 0.680500 0.447300
vt 0.627200 0.447300
vt 0.296100 0.777300
vt 0.296100 0.828900
vt 0.266100 0.828900
vt 0.266100 0.777300
vt 0.710600 0.000000
vt 0.710600 0.052700
vt 0.680500 0.052700
vt 0.680500 0.000000
vt 0.286900 0.250000
vt 0.340300 0.250000
vt 0.627200 0.500000
vt 0.710600 0.250000
vt 0.680500 0.250000
vt 0.319500 0.881600
vt 0.266100 0.881600
vt 0.266100 0.828900
vt 0.319500 0.828900
vt 0.946600 0.000000
vt 0.946600 0.052700
vt 0.532200 0.777300
vt 0.532200 0.828900
vt 0.946600 0.456300
vt 0.946600 0.228100
vt 1.000000 0.228100
vt 1.000000 0.456300
vt 0.852800 0.500000
vt 0.852800 0.728100
vt 0.798300 0.728100
vt 0.798300 0.500000
vt 0.053400 0.447300
vt 0.053400 0.500000
vt 0.000000 0.500000
vt 0.000000 0.447300
vt 0.340300 0.052700
vt 0.393600 0.052700
vt 0.562200 0.777300
vt 0.562200 0.828900
vt 0.532200 0.828900
vt 0.532200 0.777300
vt 0.236000 1.000000
vt 0.236000 0.947300
vt 0.266100 0.947300
vt 0.266100 1.000000
vt 0.510400 0.052700
vt 0.170100 0.447300
vt 0.170100 0.500000
vt 0.393600 0.000000
vt 0.510400 0.000000
vt 0.562200 0.664500
vt 0.532200 0.664500
vt 0.372800 0.881600
vt 0.319500 0.881600
vt 0.319500 0.828900
vt 0.372800 0.828900
vt 0.000000 1.000000
vt 0.000000 0.947300
vt 0.798300 0.777300
vt 0.798300 0.828900
vt 0.852800 0.956300
vt 0.852800 0.728100
vt 0.906200 0.728100
vt 0.906200 0.956300
vt 0.852800 0.956300
vt 0.798300 0.956300
vt 0.798300 0.728100
vt 0.852800 0.728100
vt 0.286900 0.447300
vt 0.340300 0.447300
vt 0.340300 0.500000
vt 0.286900 0.500000
vt 0.627200 0.052700
vt 0.680500 0.052700
vt 0.562200 0.551600
vt 0.532200 0.551600
vt 0.532200 0.500000
vt 0.562200 0.500000
vt 0.710600 0.500000
vt 0.680500 0.500000
vt 0.680500 0.447300
vt 0.710600 0.447300
vt 0.627200 0.000000
vt 0.426200 0.828900
vt 0.426200 0.881600
vt 0.372800 0.881600
vt 0.372800 0.828900
vt 0.946600 0.447300
vt 0.946600 0.500000
vt 0.798300 0.500000
vt 0.798300 0.551600
vt 0.906200 0.728100
vt 0.959500 0.728100
vt 0.959500 0.956300
vt 0.906200 0.956300
# 149 texture coordinates

vn -1.000000 -0.000001 0.000000
vn 0.000000 1.000000 0.000000
vn 0.000000 -1.000000 0.000000
vn 0.000000 -0.000001 -1.000000
vn 1.000000 -0.000001 -0.000000
vn 0.000000 -0.000001 1.000000
# 6 normals

usemtl Material
f 6/1/1 8/2/1 12/3/1 11/4/1
f 4/5/2 1/6/2 5/7/2 7/8/2
f 35/9/3 6/10/3 3/11/3 38/12/3
f 8/13/4 7/14/4 5/15/4 2/16/4
f 2/17/5 5/15/5 1/18/5 3/19/5
f 62/20/3 13/21/3 6/10/3 35/9/3
f 36/22/2 40/23/2 1/6/2 4/5/2
f 18/24/2 4/5/2 7/8/2 22/25/2
f 13/21/3 21/26/3 8/27/3 6/10/3
f 3/19/5 1/18/5 40/28/5 38/29/5
f 21/30/4 22/31/4 7/14/4 8/13/4
f 61/32/2 36/22/2 4/5/2 18/24/2
f 11/33/3 12/34/3 9/35/3 10/36/3
f 2/17/5 3/19/5 10/37/5 9/38/5
f 8/13/4 2/16/4 9/39/4 12/40/4
f 3/41/6 6/42/6 11/43/6 10/44/6
f 20/45/5 27/46/5 28/47/5 24/48/5
f 17/49/2 23/50/2 19/51/2 14/52/2
f 53/53/3 58/54/3 16/55/3 20/56/3
f 24/57/4 15/58/4 19/59/4 23/60/4
f 15/61/1 16/62/1 14/63/1 19/64/1
f 62/20/3 53/53/3 20/56/3 13/21/3
f 55/65/2 17/49/2 14/52/2 60/66/2
f 18/24/2 22/25/2 23/50/2 17/49/2
f 13/21/3 20/56/3 24/67/3 21/26/3
f 16/62/1 58/68/1 60/69/1 14/63/1
f 21/30/4 24/57/4 23/60/4 22/31/4
f 61/32/2 18/24/2 17/49/2 55/65/2
f 27/70/3 26/71/3 25/72/3 28/73/3
f 15/61/1 25/74/1 26/75/1 16/62/1
f 24/57/4 28/76/4 25/77/4 15/58/4
f 16/78/6 26/79/6 27/80/6 20/81/6
f 34/82/1 43/83/1 44/84/1 39/85/1
f 32/86/2 37/87/2 33/88/2 29/89/2
f 35/9/3 38/12/3 31/90/3 34/91/3
f 39/92/6 30/93/6 33/94/6 37/95/6
f 30/96/5 31/97/5 29/98/5 33/99/5
f 62/20/3 35/9/3 34/91/3 45/100/3
f 36/22/2 32/86/2 29/89/2 40/23/2
f 50/101/2 56/102/2 37/87/2 32/86/2
f 45/100/3 34/91/3 39/103/3 54/104/3
f 31/97/5 38/29/5 40/28/5 29/98/5
f 54/105/6 39/92/6 37/95/6 56/106/6
f 61/32/2 50/101/2 32/86/2 36/22/2
f 43/107/3 42/108/3 41/109/3 44/110/3
f 30/96/5 41/111/5 42/112/5 31/97/5
f 39/92/6 44/113/6 41/114/6 30/93/6
f 31/115/4 42/116/4 43/117/4 34/118/4
f 52/119/5 59/120/5 66/121/5 65/122/5
f 49/123/2 46/124/2 51/125/2 57/126/2
f 53/53/3 52/127/3 48/128/3 58/54/3
f 59/129/6 57/130/6 51/131/6 47/132/6
f 47/133/1 51/134/1 46/135/1 48/136/1
f 62/20/3 45/100/3 52/127/3 53/53/3
f 55/65/2 60/66/2 46/124/2 49/123/2
f 50/101/2 49/123/2 57/126/2 56/102/2
f 45/100/3 54/104/3 59/137/3 52/127/3
f 48/136/1 46/135/1 60/69/1 58/68/1
f 54/105/6 56/106/6 57/130/6 59/129/6
f 61/32/2 55/65/2 49/123/2 50/101/2
f 65/138/3 66/139/3 63/140/3 64/141/3
f 47/133/1 48/136/1 64/142/1 63/143/1
f 59/129/6 47/132/6 63/144/6 66/145/6
f 48/146/4 52/147/4 65/148/4 64/149/4

# 64 faces
