# Wavefront Obj file
# 
# verts: 44 uv-s: 88
mtllib Wall_Corner.mtl

g Wall_Corner

v -1.000000 0.000000 0.414362
v -1.000000 4.000000 0.414362
v -1.000000 2.000000 0.224466
v -1.000000 3.000000 0.224466
v -1.000000 1.000000 0.224466
v -1.000000 2.046053 0.285947
v -1.000000 1.940789 0.285947
v -1.000000 2.966877 0.285947
v -1.000000 3.047297 0.292021
v -1.000000 1.046377 0.285947
v -1.000000 0.960455 0.291026
v -0.414362 0.000000 1.000000
v -0.414362 4.000000 1.000000
v -0.224466 2.000000 1.000000
v -0.224466 3.000000 1.000000
v -0.224466 1.000000 1.000000
v -0.285948 2.046052 1.000000
v -0.285948 1.940789 1.000000
v -0.285948 2.966877 1.000000
v -0.292021 3.047297 1.000000
v -0.285948 1.046377 1.000000
v -0.291026 0.960455 1.000000
v -0.500000 4.000000 0.414362
v -0.500000 2.000000 0.224466
v -0.500000 3.000000 0.224466
v -0.500000 1.000000 0.224466
v -0.500000 2.046053 0.285947
v -0.500000 1.940789 0.285947
v -0.500000 2.966877 0.285947
v -0.500000 3.047297 0.292021
v -0.500000 1.046377 0.285947
v -0.500000 0.960455 0.291026
v -0.500000 0.000000 0.414362
v -0.414362 0.000000 0.500000
v -0.414362 4.000000 0.500000
v -0.224466 2.000000 0.500000
v -0.224466 3.000000 0.500000
v -0.224466 1.000000 0.500000
v -0.285948 2.046052 0.500000
v -0.285948 1.940789 0.500000
v -0.285948 2.966877 0.500000
v -0.292021 3.047297 0.500000
v -0.285948 1.046377 0.500000
v -0.291026 0.960455 0.500000
# 44 positions

vt 0.921302 0.598582
vt 0.588787 0.598582
vt 0.588787 0.771672
vt 0.921302 0.771672
vt 0.302505 0.687434
vt 0.281221 0.687434
vt 0.281221 0.514344
vt 0.302505 0.514344
vt 0.026284 0.718779
vt 0.005000 0.718779
vt 0.005000 0.545688
vt 0.026284 0.545688
vt 0.592238 0.211394
vt 0.569196 0.211394
vt 0.569196 0.038303
vt 0.592238 0.038303
vt 0.581041 0.672417
vt 0.559757 0.672417
vt 0.559757 0.845508
vt 0.581041 0.845508
vt 0.978735 0.314524
vt 0.669106 0.314524
vt 0.669106 0.487615
vt 0.978735 0.487615
vt 0.907558 0.778811
vt 0.588787 0.778811
vt 0.588787 0.951902
vt 0.907558 0.951902
vt 0.273475 0.609729
vt 0.250089 0.609729
vt 0.250089 0.782819
vt 0.273475 0.782819
vt 0.814164 0.100385
vt 0.792880 0.100385
vt 0.792880 0.273475
vt 0.814164 0.273475
vt 0.505246 0.005000
vt 0.505246 0.337491
vt 0.332156 0.337491
vt 0.332156 0.005000
vt 0.178090 0.514344
vt 0.178090 0.537730
vt 0.661963 0.518959
vt 0.332156 0.518959
vt 0.332156 0.548605
vt 0.661963 0.590958
vt 0.100385 0.792880
vt 0.100385 0.814163
vt 0.661963 0.345869
vt 0.332156 0.345869
vt 0.549696 0.761535
vt 0.549696 0.782819
vt 0.376606 0.782819
vt 0.376606 0.761535
vt 0.273475 0.792880
vt 0.273475 0.814163
vt 0.837672 0.283737
vt 0.837672 0.306778
vt 0.664581 0.306778
vt 0.664581 0.283737
vt 0.312565 0.577033
vt 0.312565 0.598316
vt 0.485656 0.598316
vt 0.485656 0.577033
vt 0.314629 0.005000
vt 0.005000 0.005000
vt 0.005000 0.178090
vt 0.314629 0.178090
vt 0.323772 0.259672
vt 0.005000 0.259672
vt 0.005000 0.432762
vt 0.323772 0.432762
vt 0.005000 0.514344
vt 0.005000 0.537730
vt 0.545688 0.005000
vt 0.545688 0.026284
vt 0.718779 0.026284
vt 0.718779 0.005000
vt 0.340221 0.821909
vt 0.005000 0.821909
vt 0.005000 0.995000
vt 0.340221 0.995000
vt 0.005000 0.506864
vt 0.323772 0.506864
vt 0.314629 0.252192
vt 0.005000 0.252192
vt 0.534892 0.005000
vt 0.577589 0.337491
# 88 texture coordinates

vn 0.000000 -0.127369 0.991856
vn 0.000000 0.720279 0.693684
vn 0.000000 0.880364 0.474298
vn 0.000000 0.859713 0.510777
vn 0.000000 -0.800361 0.599518
vn 0.000000 0.000000 1.000000
vn 0.000000 -0.819184 0.573532
vn 0.000000 -0.798338 0.602210
vn 0.000000 0.127368 0.991856
vn -0.497513 -0.710606 0.497513
vn -0.704210 -0.090431 0.704210
vn -0.428538 0.795432 0.428537
vn -0.991856 -0.127369 0.000000
vn -0.693678 0.720285 0.000000
vn -0.474292 0.880368 0.000000
vn -0.510777 0.859713 0.000000
vn -0.599504 -0.800372 0.000000
vn -1.000000 0.000000 0.000000
vn -0.573532 -0.819184 0.000000
vn -0.602204 -0.798343 0.000000
vn -0.991856 0.127368 0.000000
vn -0.707108 0.000000 0.707105
vn -0.514189 -0.686457 0.514186
vn -0.569973 0.591830 0.569972
vn -0.515886 -0.683904 0.515885
vn -0.454875 0.765622 0.454875
vn -0.704210 0.090430 0.704210
# 27 normals

usemtl None
f 30/1/1 23/2/1 2/3/1 9/4/1
f 28/5/2 24/6/2 3/7/2 7/8/2
f 29/9/3 25/10/3 4/11/3 8/12/3
f 32/13/4 26/14/4 5/15/4 11/16/4
f 24/17/5 27/18/5 6/19/5 3/20/5
f 31/21/6 28/22/6 7/23/6 10/24/6
f 27/25/6 29/26/6 8/27/6 6/28/6
f 25/29/7 30/30/7 9/31/7 4/32/7
f 26/33/8 31/34/8 10/35/8 5/36/8
f 33/37/9 32/38/9 11/39/9 1/40/9
f 37/41/10 42/42/10 30/30/10 25/29/10
f 42/43/11 35/44/11 23/45/11 30/46/11
f 41/47/12 37/48/12 25/10/12 29/9/12
f 20/49/13 13/50/13 35/44/13 42/43/13
f 18/51/14 14/52/14 36/53/14 40/54/14
f 19/55/15 15/56/15 37/48/15 41/47/15
f 22/57/16 16/58/16 38/59/16 44/60/16
f 14/61/17 17/62/17 39/63/17 36/64/17
f 21/65/18 18/66/18 40/67/18 43/68/18
f 17/69/18 19/70/18 41/71/18 39/72/18
f 15/73/19 20/74/19 42/42/19 37/41/19
f 16/75/20 21/76/20 43/77/20 38/78/20
f 12/79/21 22/80/21 44/81/21 34/82/21
f 41/71/22 29/83/22 27/84/22 39/72/22
f 24/17/23 36/64/23 39/63/23 27/18/23
f 28/5/24 40/54/24 36/53/24 24/6/24
f 31/85/22 43/68/22 40/67/22 28/86/22
f 26/33/25 38/78/25 43/77/25 31/34/25
f 32/13/26 44/60/26 38/59/26 26/14/26
f 33/37/27 34/87/27 44/88/27 32/38/27

# 30 faces
